<svg xmlns="http://www.w3.org/2000/svg" width="624" height="400" viewBox="0 0 624 400" fill="none"><path d="M0 61.6001C0 61.6001 80.4 42.4001 142 94.4001C227.1 166.4 170.6 271.8 269.2 263.3C373.5 254.2 393.6 369.5 393.6 369.5H0V61.6001Z" fill="url(#paint0_linear)"></path><path d="M78.4 363.6C78.4 363.6 56.1 183.4 91.8 172.9C130.1 161.6 98.8 363.6 98.8 363.6H78.4Z" fill="url(#paint1_linear)"></path><path d="M92.6 195.7C92.6 195.7 88 253 94.7 317.1" stroke="white" stroke-miterlimit="10" stroke-linecap="round"></path><path d="M49.5 362.8C49.4 362.8 44.2 253.1 0 224V362.8H49.5Z" fill="url(#paint2_linear)"></path><path d="M6.59998 274.9C6.59998 274.9 20.9 308 26.5 362.8" stroke="white" stroke-miterlimit="10" stroke-linecap="round"></path><path d="M198.8 362.8C198.8 362.8 209 304.8 227.7 309.4C249 314.6 211.2 362.8 211.2 362.8H198.8Z" fill="url(#paint3_linear)"></path><path d="M83.6 362.8C83.6 362.8 78.3 280.7 55.2 248.3C55.2 248.3 31.6 293.9 61.4 362.4L83.6 362.8Z" fill="url(#paint4_linear)"></path><path d="M228.2 203.7C226.8 202.6 226.6 200.7 227.7 199.3L230.4 195.9C231.5 194.5 232.9 193.8 234.2 194.8C234.2 194.8 236.7 197.3 238.4 196.5C240.3 195.6 244 191.5 245.8 188.6C247.1 186.5 243 183.4 243 183.4C241.6 182.3 242.1 181 243.2 179.7L245.9 176.3C247 174.9 248.9 174.7 250.3 175.8C260.9 184.3 242.4 211.2 228.2 203.7Z" fill="#AACEFF"></path><path d="M452.2 346.8H365.4V362.8H452.2V346.8Z" fill="#0321FF"></path><path d="M442.6 337.4H375V346.8H442.6V337.4Z" fill="#A8CBFF"></path><path d="M385.3 322.2H260.8C259.1 322.2 257.9 320.6 258.3 319L283.4 226.8C284.3 223.3 287.5 220.9 291.1 220.9H415.6C417.3 220.9 418.5 222.5 418.1 224.1L393 316.3C392 319.7 388.9 322.2 385.3 322.2Z" fill="url(#paint5_linear)"></path><path d="M389.3 322.2H264.8C263.1 322.2 261.9 320.6 262.3 319L287.4 226.8C288.3 223.3 291.5 220.9 295.1 220.9H419.6C421.3 220.9 422.5 222.5 422.1 224.1L397 316.3C396.1 319.7 392.9 322.2 389.3 322.2Z" fill="url(#paint6_linear)"></path><path d="M330.6 273.6L312.1 348.4C310.8 353.7 306 357.5 300.5 357.5H285.3C283.8 357.5 282.6 358.7 282.6 360.2C282.6 361.7 283.8 362.9 285.3 362.9H308.5H313.7H325.3C330.1 362.9 334.4 359.6 335.5 354.9L354.7 275C355.1 273.3 353.8 271.6 352 271.6H333.2C332 271.5 330.9 272.4 330.6 273.6Z" fill="url(#paint7_linear)"></path><path d="M480 369.4H0V362.8H480C481.8 362.8 483.3 364.3 483.3 366.1C483.3 367.9 481.8 369.4 480 369.4Z" fill="#3D3D3F"></path><path d="M33.1 187.3C24.2 189.7 19 198.9 21.4 207.7C22.5 211.7 25 215 28.2 217.2V224.7L33.4 219.5C36.1 220.2 39 220.2 41.8 219.4C50.7 217 56 207.9 53.6 199C51.2 190.1 42 184.9 33.1 187.3ZM32.2 206.3C31.4 206.5 30.6 206 30.4 205.3C30.2 204.5 30.7 203.7 31.4 203.5C32.2 203.3 33 203.8 33.2 204.6C33.5 205.3 33 206.1 32.2 206.3ZM37.9 204.8C37.1 205 36.3 204.5 36.1 203.8C35.9 203 36.3 202.2 37.1 202C37.9 201.8 38.7 202.3 38.9 203.1C39.1 203.8 38.7 204.6 37.9 204.8ZM43.5 203.2C42.7 203.4 41.9 202.9 41.7 202.2C41.5 201.4 41.9 200.6 42.7 200.4C43.5 200.2 44.3 200.7 44.5 201.5C44.8 202.2 44.3 203 43.5 203.2Z" fill="white"></path><path d="M218.5 106.2L219 104.1C220.2 98.8999 225.3 95.6999 230.5 96.8999C235.7 98.0999 238.9 103.2 237.7 108.4V108.3C236.6 113.2 234.3 115.9 230.7 118.1L228.9 119.2C226.6 120.6 225 122.9 224.4 125.6L223.5 129.4" fill="white"></path><path d="M223 131.6C221.8 131.3 221.1 130.1 221.3 128.9L222.2 125.1C222.9 121.9 224.9 119.1 227.7 117.4L229.5 116.3C232.4 114.5 234.5 112.4 235.5 108C236.4 104.1 233.9 100.1 230 99.1999C226.1 98.2999 222.1 100.8 221.2 104.7L220.7 106.8C220.4 108 219.2 108.7 218 108.5C216.8 108.2 216.1 107 216.3 105.8L216.8 103.7C218.3 97.3999 224.6 93.3999 231 94.7999C237.3 96.2999 241.3 102.5 239.9 108.9C238.8 113.9 236.4 117.3 231.9 120.1L230.1 121.2C228.3 122.3 227 124.1 226.6 126.2L225.7 130C225.4 131.1 224.2 131.8 223 131.6Z" fill="#AACEFF"></path><path d="M224.3 137.3C224 138.6 222.7 139.4 221.4 139.1C220.1 138.8 219.3 137.5 219.6 136.2C219.9 134.9 221.2 134.1 222.5 134.4C223.8 134.6 224.6 136 224.3 137.3Z" fill="#AACEFF"></path><path d="M108.7 113.4C109.7 116.6 109.2 119 107.8 121.4L107.1 122.7C106.2 124.3 106 126.2 106.6 127.9L107.3 130.4L105 127.8C104.6 125.8 104.8 123.8 105.8 122L106.5 120.7C107.6 118.7 108.1 116.8 107.2 113.9C106.8 112.6 105.9 111.6 104.8 111C103.7 110.4 102.4 110.2 101.1 110.6C98.4999 111.4 97 114.1 97.8 116.7L98.1999 118.1C98.3999 118.7 98.2 119.3 97.8 119.6L96.8 118.5L96.4 117.1C95.4 113.7 97.2999 110.1 100.7 109.1C102.4 108.6 104.1 108.8 105.6 109.6C107.1 110.4 108.2 111.7 108.7 113.4Z" fill="white"></path><path d="M110.1 112.9L110.2 113.1C111.1 116.3 110.8 119 109.2 122.1L108.5 123.4C107.8 124.7 107.7 126.1 108.1 127.5L108.8 130C109 130.8 108.6 131.6 107.8 131.9C107 132.1 106.2 131.7 105.9 130.9L105.2 128.4C105.1 128.2 105.1 128.1 105.1 127.9C104.7 125.9 104.9 123.9 105.9 122.1L106.6 120.8C107.7 118.8 108.2 116.9 107.3 114C106.9 112.7 106 111.7 104.9 111.1C103.8 110.5 102.5 110.3 101.2 110.7C98.6 111.5 97.1 114.2 97.9 116.8L98.3 118.2C98.5 118.8 98.3 119.4 97.9 119.7C97.7 119.8 97.6 119.9 97.3 120C96.5 120.2 95.7 119.8 95.4 119L95 117.6C93.8 113.4 96.2 109 100.3 107.8C104.5 106.5 108.9 108.8 110.1 112.9Z" fill="white"></path><path d="M110.4 134.6C110.7 135.5 110.2 136.4 109.3 136.6C108.4 136.9 107.5 136.4 107.3 135.5C107 134.6 107.5 133.7 108.4 133.5C109.2 133.3 110.2 133.8 110.4 134.6Z" fill="white"></path><path d="M57.8 150.7L37.6 145.2L41.2 132L49.5 141.4L61.4 137.5L57.8 150.7Z" fill="white"></path><path d="M52.7001 129.7L45.1 127.6L43.8 132.7L49.9001 139.7L58.8 136.8L60.2001 131.7L52.7001 129.7Z" fill="white"></path><path d="M57.753 133.354L46.366 130.261L46.2611 130.647L57.6481 133.74L57.753 133.354Z" fill="#A6ABFD"></path><path d="M57.157 135.447L45.77 132.354L45.6652 132.741L57.0522 135.833L57.157 135.447Z" fill="#A6ABFD"></path><path d="M37.5 94.1C37.5 95.6 36.3001 96.7 34.9001 96.7C33.4001 96.7 32.3 95.5 32.3 94.1C32.3 92.6 33.5001 91.5 34.9001 91.5C36.3001 91.4 37.5 92.6 37.5 94.1Z" stroke="white" stroke-miterlimit="10" stroke-linecap="round"></path><path d="M148.1 132C148.1 133.5 146.9 134.6 145.5 134.6C144 134.6 142.9 133.4 142.9 132C142.9 130.5 144.1 129.4 145.5 129.4C146.9 129.4 148.1 130.6 148.1 132Z" stroke="white" stroke-miterlimit="10" stroke-linecap="round"></path><path d="M216.3 166.3C216.3 167.8 215.1 168.9 213.7 168.9C212.2 168.9 211.1 167.7 211.1 166.3C211.1 164.8 212.3 163.7 213.7 163.7C215.1 163.7 216.3 164.9 216.3 166.3Z" stroke="#BADDFF" stroke-miterlimit="10" stroke-linecap="round"></path><path d="M167 362.8C167 362.8 165.3 273.1 201.3 238.7C201.3 238.7 218.1 281 192.7 362.8H167Z" fill="url(#paint8_linear)"></path><path d="M192.9 265.8C192.9 265.8 195.5 301.7 182.8 355.3" stroke="white" stroke-miterlimit="10" stroke-linecap="round"></path><path d="M146.1 216.9L145.4 225.9L145.2 228.9L144.5 238.4L124.5 238.7L126.8 219L128 208.9L128.5 204L146.1 216.9Z" fill="#FA8FA4"></path><path d="M145.4 225.9L145.2 228.9C133.5 228.9 128.1 212.8 127.7 211.5L128 208.9C134 221.6 145.4 225.9 145.4 225.9Z" fill="#FA8098"></path><path d="M254.3 253.9C254.3 253.9 263.6 243.6 271.1 242.8C273.9 242.5 269.2 248.3 269.2 248.3H300.6C300.6 248.3 299.4 252.2 297.1 253.9C294.8 255.6 269.2 263.2 269.2 263.2L254.3 253.9Z" fill="#FA8FA4"></path><path d="M159.1 181.3C161.8 183.4 166.3 185.7 167 189.1C167.6 192.1 161.5 202 164.4 205.9C169.7 213 158.8 223.1 154.9 225.8C145.6 232.2 121.7 213.3 129.8 188.8C135.9 170.1 151.2 175.3 159.1 181.3Z" fill="#FA8FA4"></path><path d="M130.9 178.1C130.9 178.1 156 195.5 168.4 188.1C180.8 180.7 169 166.1 169 166.1C169 166.1 166.3 171.2 157.2 168.2C148.3 165.3 131.6 163.4 130.9 178.1Z" fill="#0A0A0F"></path><path d="M141.7 176.3C141.7 176.3 135.8 167.8 127.8 172.8C121.8 176.6 123.1 197.7 128.5 205.7C128.6 205.6 128.7 180.9 141.7 176.3Z" fill="#0A0A0F"></path><path d="M145.8 181.6C145.8 181.6 140.8 193.6 135.2 196.5C135.2 196.5 135.7 203 129.9 203C129.9 203 131.7 201 129.8 196.4C129.4 195.4 129.1 194.4 128.9 193.3C127.8 187.1 133.2 175.6 139.2 176.3C145.2 177 145.8 181.6 145.8 181.6Z" fill="#0A0A0F"></path><path d="M129.9 206.2C129.9 206.2 125.6 206.7 123.9 203.2C120.8 196.9 127.6 193.2 129.7 196.5L129.9 206.2Z" fill="#FA8FA4"></path><path d="M148 210.5C148.667 212.333 150.702 215 154 215C157.5 215 160 213.667 161 212.5" stroke="white"></path><path d="M149 198.6C148.9 199.7 148.5 200.5 148.1 200.5C147.7 200.5 147.4 199.6 147.5 198.5C147.6 197.4 148 196.6 148.4 196.6C148.8 196.6 149.1 197.5 149 198.6Z" fill="#2E112E"></path><path d="M161.9 199.7C161.8 200.8 161.4 201.6 161 201.6C160.6 201.6 160.3 200.7 160.4 199.6C160.5 198.5 160.9 197.7 161.3 197.7C161.7 197.7 162 198.6 161.9 199.7Z" fill="#2E112E"></path><path d="M83.6 362.8C83.6 362.8 55.7 273.6 84.5 253.8C113.4 234 132.4 230.2 162 242.1C191.5 254 176 362.8 176 362.8H83.6Z" fill="#173796"></path><path d="M152.7 282.2L198.7 324C211.1 335.3 230.8 332 238.9 317.4L269.1 263.2L254.3 253.9C254.3 253.9 224.6 288.7 219.5 285.9C214.4 283.1 192.5 235.1 135.3 235.3C107.9 235.4 152.7 282.2 152.7 282.2Z" fill="#173796"></path><path d="M84.5 253.7C84.5 253.7 55.6 276.2 38 320.2C29.9 340.6 44.8 362.7 66.7 362.7H131.2L130 342.7L85 319.7C84.9 319.8 132 278.8 84.5 253.7Z" fill="#173796"></path><path d="M133.9 195.3C133.9 195.3 136.6 171.6 151.9 167.1C151.9 167.1 147.5 163.4 142.3 166.4C142.3 166.4 130.2 172.9 128.1 195.8L133.9 195.3Z" fill="#0321FF"></path><path d="M148 222.6C146.2 222 141.6 219.8 137.3 215.7C131.8 210.4 131.7 203.1 131.7 202.8L133.9 202.7C133.9 202.8 134.3 209.6 139.1 214.3C144 219.1 149.3 220.7 149.4 220.7L148.8 222.8C148.8 222.8 148.5 222.7 148 222.6Z" fill="#0A0A0F"></path><path d="M147.2 219.9C146.8 221 147.6 222.4 148.7 222.8C149.8 223.2 151 222.6 151.4 221.5C151.8 220.4 151.2 219.2 150.1 218.8C149 218.5 147.6 218.8 147.2 219.9Z" fill="#0A0A0F"></path><path d="M128.6 210.6C134.068 210.6 138.5 205.675 138.5 199.6C138.5 193.525 134.068 188.6 128.6 188.6C123.132 188.6 118.7 193.525 118.7 199.6C118.7 205.675 123.132 210.6 128.6 210.6Z" fill="#173796"></path><path d="M125.4 209.4C130.26 209.4 134.2 205.012 134.2 199.6C134.2 194.187 130.26 189.8 125.4 189.8C120.54 189.8 116.6 194.187 116.6 199.6C116.6 205.012 120.54 209.4 125.4 209.4Z" fill="#0321FF"></path><path d="M118.7 236.8L125.9 226.3L138.4 235.2L145.1 228.8L151.4 236.6L144.4 244.7L138.3 237.9L132.8 245.8C133 245.9 124.1 243 118.7 236.8Z" fill="white"></path><path d="M100.5 296.1L85.2 320.2C83 323.7 84.6 328.3 88.5 329.8L133 346" fill="#173796"></path><path d="M100.5 296.1L85.2 320.2C83 323.7 84.6 328.3 88.5 329.8L133 346" stroke="#0A0A0F" stroke-miterlimit="10"></path><path d="M131.2 362.8L133.1 349.3C133.1 349.3 156.1 355.9 157.5 357.2C159 358.4 163.1 362.8 163.1 362.8H131.2Z" fill="#FA8FA4"></path><path d="M84.7 148.5L83.6 156.1" stroke="white" stroke-miterlimit="10" stroke-linecap="round"></path><path d="M88 152.9L80.4 151.7" stroke="white" stroke-miterlimit="10" stroke-linecap="round"></path><path d="M276.9 189.2L275.8 196.8" stroke="#AACEFF" stroke-miterlimit="10" stroke-linecap="round"></path><path d="M280.2 193.6L272.6 192.4" stroke="#AACEFF" stroke-miterlimit="10" stroke-linecap="round"></path><path d="M22.2 162.6H16.1V168.7H22.2V162.6Z" stroke="white" stroke-miterlimit="10" stroke-linecap="round"></path><path d="M183.068 94.1427L178.451 90.1558L174.464 94.7729L179.081 98.7598L183.068 94.1427Z" stroke="#BADDFF" stroke-miterlimit="10" stroke-linecap="round"></path><path d="M250 323.8H223C221.3 323.8 220 325.2 220 326.8V344.5C220 348.5 221.2 352.3 223.4 355.6L226.7 360.4C227.7 361.9 229.4 362.8 231.2 362.8H241.8C243.6 362.8 245.3 361.9 246.3 360.4L250.2 354.6C252.1 351.8 253.1 348.6 253.1 345.2V326.8C253 325.2 251.7 323.8 250 323.8Z" fill="white"></path><path d="M233.1 349.5H218C212.9 349.5 208.8 345.4 208.8 340.3C208.8 335.2 212.9 331.1 218 331.1H233.1V349.5ZM218 335.1C215.2 335.1 212.8 337.4 212.8 340.3C212.8 343.1 215.1 345.5 218 345.5H229V335.2H218V335.1Z" fill="white"></path><path d="M237.5 312.4C237.5 312.4 231.9 308 234.1 301C236.2 294.1 240.7 289.5 237.5 284.6C237.5 284.6 245.5 285.8 242.6 293.9C239.7 302 235 307.1 237.5 312.4Z" fill="url(#paint9_linear)"></path><path d="M232 298.5C232 298.5 226.6 306.4 232 312.4C238.4 319.5 235.6 322.7 235.6 322.7C235.6 322.7 233.6 319.6 228.3 316.1C223.6 313 220.1 303.1 232 298.5Z" fill="url(#paint10_linear)"></path><defs><linearGradient id="paint0_linear" x1="0" y1="213.791" x2="393.492" y2="213.791" gradientUnits="userSpaceOnUse"><stop stop-color="#2084FB"></stop><stop offset="1" stop-color="#F9FBFF"></stop></linearGradient><linearGradient id="paint1_linear" x1="71.5208" y1="268.005" x2="110.837" y2="268.005" gradientUnits="userSpaceOnUse"><stop stop-color="#2084FB"></stop><stop offset="1" stop-color="#A8CBFF"></stop></linearGradient><linearGradient id="paint2_linear" x1="0" y1="293.388" x2="49.4865" y2="293.388" gradientUnits="userSpaceOnUse"><stop stop-color="#2084FB"></stop><stop offset="1" stop-color="#A8CBFF"></stop></linearGradient><linearGradient id="paint3_linear" x1="198.8" y1="335.965" x2="234.199" y2="335.965" gradientUnits="userSpaceOnUse"><stop stop-color="#2084FB"></stop><stop offset="1" stop-color="#F9FBFF"></stop></linearGradient><linearGradient id="paint4_linear" x1="46.3323" y1="305.54" x2="83.5899" y2="305.54" gradientUnits="userSpaceOnUse"><stop stop-color="#2084FB"></stop><stop offset="1" stop-color="#A8CBFF"></stop></linearGradient><linearGradient id="paint5_linear" x1="258.223" y1="271.541" x2="418.134" y2="271.541" gradientUnits="userSpaceOnUse"><stop stop-color="#2084FB"></stop><stop offset="1" stop-color="#2084FB"></stop></linearGradient><linearGradient id="paint6_linear" x1="262.223" y1="271.541" x2="449.5" y2="275.5" gradientUnits="userSpaceOnUse"><stop stop-color="#2084FB"></stop><stop offset="1" stop-color="#F9FBFF"></stop></linearGradient><linearGradient id="paint7_linear" x1="343" y1="272" x2="210.5" y2="442" gradientUnits="userSpaceOnUse"><stop stop-color="#2084FB"></stop><stop offset="1" stop-color="#F9FBFF"></stop></linearGradient><linearGradient id="paint8_linear" x1="166.987" y1="300.739" x2="206.738" y2="300.739" gradientUnits="userSpaceOnUse"><stop stop-color="#2084FB"></stop><stop offset="1" stop-color="#F9FBFF"></stop></linearGradient><linearGradient id="paint9_linear" x1="233.588" y1="298.498" x2="243.231" y2="298.498" gradientUnits="userSpaceOnUse"><stop stop-color="#2084FB"></stop><stop offset="1" stop-color="#F9FBFF"></stop></linearGradient><linearGradient id="paint10_linear" x1="223.925" y1="310.598" x2="236.206" y2="310.598" gradientUnits="userSpaceOnUse"><stop stop-color="#2084FB"></stop><stop offset="1" stop-color="#F9FBFF"></stop></linearGradient></defs></svg>